<svg width="24" height="24" viewBox="-1 -1 26 26" fill="none" xmlns="http://www.w3.org/2000/svg">
    <path fill-rule="evenodd" clip-rule="evenodd" d="M12 0C5.37258 0 0 5.37258 0 12C0 18.6274 5.37258 24 12 24C18.6274 24 24 18.6274 24 12C24 5.37258 18.6274 0 12 0ZM18.6685 9.7437C19.0792 9.37449 19.1129 8.74222 18.7437 8.33149C18.3745 7.92075 17.7422 7.88709 17.3315 8.2563L10.2841 14.5912L6.74031 10.6886C6.36903 10.2797 5.7366 10.2493 5.32774 10.6206C4.91887 10.9918 4.88841 11.6243 5.25969 12.0331L9.47239 16.6723C9.84234 17.0797 10.4719 17.1116 10.8812 16.7437L18.6685 9.7437Z" />
</svg>
