<svg width="24" height="24" viewBox="0 0 24 24" fill="none" xmlns="http://www.w3.org/2000/svg">
<path d="M1.33398 10.8959H0.833984C0.833984 10.6198 1.05784 10.3959 1.33398 10.3959V10.8959ZM23.1673 22.666C23.1673 22.9422 22.9435 23.166 22.6673 23.166C22.3912 23.166 22.1673 22.9422 22.1673 22.666H23.1673ZM1.83398 22.666C1.83398 22.9422 1.61013 23.166 1.33398 23.166C1.05784 23.166 0.833984 22.9422 0.833984 22.666H1.83398ZM5.97167 10.8959V10.3959C6.24781 10.3959 6.47167 10.6198 6.47167 10.8959H5.97167ZM6.47167 22.666C6.47167 22.9422 6.24781 23.166 5.97167 23.166C5.69552 23.166 5.47167 22.9422 5.47167 22.666H6.47167ZM10.1818 22.666C10.1818 22.9422 9.95795 23.166 9.68181 23.166C9.40567 23.166 9.18181 22.9422 9.18181 22.666H10.1818ZM9.68181 6.48211H9.18181C9.18181 6.20597 9.40567 5.98211 9.68181 5.98211V6.48211ZM14.3195 6.48211V5.98211C14.5956 5.98211 14.8195 6.20597 14.8195 6.48211H14.3195ZM14.8195 22.666C14.8195 22.9422 14.5956 23.166 14.3195 23.166C14.0433 23.166 13.8195 22.9422 13.8195 22.666H14.8195ZM18.5296 22.666C18.5296 22.9422 18.3058 23.166 18.0296 23.166C17.7535 23.166 17.5296 22.9422 17.5296 22.666H18.5296ZM18.0296 1.33268H17.5296C17.5296 1.05654 17.7535 0.832684 18.0296 0.832684V1.33268ZM22.6673 1.33268V0.832684C22.9435 0.832684 23.1673 1.05654 23.1673 1.33268H22.6673ZM0.833984 22.666V10.8959H1.83398V22.666H0.833984ZM1.33398 10.3959H5.97167V11.3959H1.33398V10.3959ZM6.47167 10.8959V22.666H5.47167V10.8959H6.47167ZM9.18181 22.666V6.48211H10.1818V22.666H9.18181ZM9.68181 5.98211H14.3195V6.98211H9.68181V5.98211ZM14.8195 6.48211V22.666H13.8195V6.48211H14.8195ZM17.5296 22.666V1.33268H18.5296V22.666H17.5296ZM18.0296 0.832684H22.6673V1.83268H18.0296V0.832684ZM23.1673 1.33268V22.666H22.1673V1.33268H23.1673Z" fill="#808080"/>
</svg>
