<svg width="18" height="18" viewBox="0 0 18 18" fill="none" xmlns="http://www.w3.org/2000/svg">
<path fill-rule="evenodd" clip-rule="evenodd" d="M0.646447 0.646447C0.841709 0.451184 1.15829 0.451184 1.35355 0.646447L9 8.29289L16.6464 0.646447C16.8417 0.451184 17.1583 0.451184 17.3536 0.646447C17.5488 0.841709 17.5488 1.15829 17.3536 1.35355L9.70711 9L17.3536 16.6464C17.5488 16.8417 17.5488 17.1583 17.3536 17.3536C17.1583 17.5488 16.8417 17.5488 16.6464 17.3536L9 9.70711L1.35355 17.3536C1.15829 17.5488 0.841709 17.5488 0.646447 17.3536C0.451184 17.1583 0.451184 16.8417 0.646447 16.6464L8.29289 9L0.646447 1.35355C0.451184 1.15829 0.451184 0.841709 0.646447 0.646447Z" fill="#070707"/>
</svg>
